<svg width="100" height="100" viewBox="0 0 100 100" xmlns="http://www.w3.org/2000/svg">
    <path d="M 10 25 L 10 75 Q 10 85, 20 85 L 48 85 L 48 25 Q 48 15, 38 15 L 20 15 Q 10 15, 10 25 Z" fill="#10b981"/>
    <path d="M 52 25 L 52 85 L 80 85 Q 90 85, 90 75 L 90 25 Q 90 15, 80 15 L 62 15 Q 52 15, 52 25 Z" fill="#059669"/>
    <rect x="48.5" y="15" width="3" height="70" fill="#ffffff" opacity="0.2"/>
    <path d="M 65 32 Q 68 28, 62 26 Q 55 24, 48 26 Q 38 29, 38 38 Q 38 45, 45 48 L 55 52 Q 50 54, 50 50" fill="none" stroke="#ffffff" stroke-width="8" stroke-linecap="round"/>
    <path d="M 50 50 Q 50 54, 55 52 L 45 48 Q 62 55, 62 62 Q 62 71, 52 74 Q 45 76, 38 74 Q 32 72, 35 68" fill="none" stroke="#ffffff" stroke-width="8" stroke-linecap="round"/>
</svg>